# xmcd CD database file
#
# Track frame offsets:
#	150
#	15105
#	29935
#	48852
#	65585
#	83795
#	101762
#	125745
#	142270
#	159447
#	177327
#
# Disc length: 2658 seconds
#
# Revision: 5
# Processed by: cddbd v1.5.1PL0 Copyright (c) Steve Scherf et al.
# Submitted via: CDex 1.51
#
DISCID=970a600b
DTITLE=Näslund, Totta - Totta 3 - En dåre som jag
DYEAR=1999
DGENRE=Blues
TTITLE0=Den röda klänningen
TTITLE1=Hjärtat är ett trubbigt instrument
TTITLE2=En dåre som jag
TTITLE3=Familjelycka
TTITLE4=Maria
TTITLE5=Femton minuter
TTITLE6=Fyra år
TTITLE7=Lögner och porslin
TTITLE8=Stort att vara liten
TTITLE9=Allt jag gör för dig
TTITLE10=Jungman Jansson
EXTD=YEAR: 1999
EXTT0=
EXTT1=
EXTT2=
EXTT3=
EXTT4=
EXTT5=
EXTT6=
EXTT7=
EXTT8=
EXTT9=
EXTT10=
PLAYORDER=
